<?xml version="1.0" encoding="UTF-8"?>
<!-- Created with Inkscape (http://www.inkscape.org/) -->
<svg id="svg2" version="1.1" viewBox="0 0 602 462.27" xmlns="http://www.w3.org/2000/svg" xmlns:cc="http://creativecommons.org/ns#" xmlns:dc="http://purl.org/dc/elements/1.1/" xmlns:rdf="http://www.w3.org/1999/02/22-rdf-syntax-ns#" xmlns:xlink="http://www.w3.org/1999/xlink"><defs id="defs4"><linearGradient id="linearGradient31195" x1="90.277" x2="469.43" y1="453.03" y2="418.79" gradientUnits="userSpaceOnUse"><stop id="stop31517" style="stop-color:#daa928" offset="0"/><stop id="stop31519" style="stop-color:#feff33" offset="1"/></linearGradient></defs><metadata id="metadata7"><rdf:RDF><cc:Work rdf:about=""><dc:format>image/svg+xml</dc:format><dc:type rdf:resource="http://purl.org/dc/dcmitype/StillImage"/></cc:Work></rdf:RDF></metadata><g id="layer1" transform="translate(-71.048 -295.05)"><rect id="rect3974" x="71.048" y="295.05" width="602" height="462.27" style="color:#000000;fill:#000000"/><path id="path3958" d="m372.38 309.14c-152.17 0.17493-277.57 124.83-281.69 281.75-0.04798 1.8303-0.07973 3.6695-0.09375 5.5l15.937 0.53125 51.062-10.312s10.771-5.8238 25.906-10.438c13.959-4.2552 20.969-2.9688 20.969-2.9688l37.469-9-0.0312 0.34375 8.875-1c0.73857-1.9626-1.5716-4.9758 6.0312-6.375 0.017-0.0169 0.0765-0.0145 0.0937-0.0312 1.3342-1.2917 3.8127-1.933 5.7188-2.8125 1.0509-1.8367 2.3882-1.88 3.1562-4.125 1.3113-0.93698 3.6068-4.1446 3.0938-7.375 0.91516-3.3013-1.9106-5.0284-2.4062-5.9375-1.3406-1.8732-0.21502-6.3234-1.4062-8.3125-0.99382-2.3891-2.2885-2.9365-2.75-5.2188-1.1639-1.6135-1.4198-3.7764-2.8125-5.625-1.3128-1.2755-1.538-2.8193-3.125-4.5-1.405-1.742-1.609-2.1061-3.125-3.7188 0.52309-3.7225-1.8346-3.9468-2.0938-7.1562-0.53286-3.7543 2.7477-5.5738 2.4375-9.2812 1.0828-2.5417-0.8932-7.6465 2.2188-8.2188 1.0692-0.96186 0.71343-5.5546 2.3125-7.0938 0.63016-2.2735-0.13203-6.3856 1.375-7.0938 0.74756-0.71554 2.2572-0.61663 3.4688-1l-7.2188-1.3438c-1.0537-0.1958-1.7025-1.204-1.4688-2.25l0.59375-2.6875c0.23376-1.0459 1.29-1.7271 2.3438-1.5312l10.062 1.875c0.15925-0.89786 0.37618-1.8394 0.9375-2.7812-8.4e-4 -3.6103 9.8e-4 -7.2023 0-10.812-1.089-0.63111-2.8504-3.0788-3.5312-3.5938-2.7915-2.2242-4.5564-5.0376-6.25-8.375-1.223-2.1762-1.0611-5.4056-1-8.5938-0.83244-1.8596-1.6674-4.439-2.8125-6.3438v-13.062c-1.0345-2.2031-1.1029-2.6517-2.4375-3.5-0.63532-2.2637-1.021-3.787-2.4062-6.2188-1.2727-1.7092-1.5604-1.511-4.875-1.4688-1.9233-0.0999-6.1274 3.2033-5.1875-2.625-1.3621-0.49811-2.6178-0.47601-2.4375-2.625-1.1704-1.7197-5.2658 0.84247-3.5-3.5312 0.67656-4.1391-1.2849-5.4422-1.0312-9.125 0.19618-2.2036 1.6203-3.7029 0.71875-7.5312 0.78087-2.3316 2.8656-3.2004 5.9062-4.0938 2.1741-0.84967 4.5943-1.3912 7.625-1.0938 0.37419-0.0914 0.72354-0.16804 1.0312-0.1875 2.154-0.13635 2.8268 1.3213 4.1875 2.0312 1.9362 1.1714 4.4504 1.304 5.2188 3.75 1.1275 1.6941 1.1506 4.3044 1 7.0938v5.1562c0.69806 1.4425 5.4107 1.2862 8.3438 3.0625-0.24267 0.0722 5.1333 0.50265 5.25 2.5938 1.7484 1.741 3.2014 1.8809 4.5312 4.125 1.7654 0.50888 1.3979 4.165 3.8125 5.2188 1.0257 1.343 1.8574 3.5157 2.0938 5.625 2.2344 1.0545 2.8148 3.3045 5.5312 3.7188 1.9238 1.0605 2.1544 4.7334 3.1562 6.3438 1.8475 0.90468 1.1462 5.0516 2.4062 6.7188 1.3639 1.43 3.0128 3.9248 0.6875 5.5938-1.108 2.1918-1.0983 5.8701-1 9.2188 0.40675 2.0294-0.24112 6.4788 1 6.875 2.6963-1.6088 4.0617 0.46392 4.5312 3.7188 1.0272 2.1655-0.67957 6.8234 1.375 8.2188 0.75783 1.7047 2.2958 2.695 1.4375 5.375-0.54495 3.229 0.96739 5.3488 1.7188 7.7188 0.0148 0.0343 0.0165 0.0591 0.0312 0.0937l43.906 8.1562 1.625-9.5938c0.2835-1.6903 1.8491-2.7971 3.5312-2.4688l27.812 5.4375c0.47726-2.9172 1.1107-5.8201 1.3438-8.7812-1.9835 1.0836-3.9048 2.0814-5.5938 2.9062-2.4295 0.734-4.6356-1.4067-7.0625-1.6562-2.522-0.78408-5.3421-2.3899-6.0625-5.75-0.22123-2.246-3.442-3.1686-1.3125-5.4062 1.65-1.4781 0.79897-3.6882-1.1562-3.3438-1.7454 0.11985-3.0231-2.2518-3.9375-2.7812-0.59507 1.9942-3.7179 3.2029-5.25 2.0938-3.0156-0.088 1.8868-4.6818-1.125-5.6562-1.7545 0.0851-2.8077 0.38747-3.3125-2.7188-0.43156-2.9108 0.93818-5.6667 1.2812-8.5312 0.87359-3.538 5.1579 1.3689 6.25-2.3125 0.43984-0.0496 0.86044 0.23358 1.25 0.4375l0.28125 0.625c0.65017-2.3713 2.7143-7.2975 5.9062-6 2.0018 1.4031-2.8832 5.7598 0.1875 5.8438 1.3145-0.39254 3.5502 2.0647 3.25-0.40625 1.5504-1.8182 3.3189 1.1179 2.4062 2.9062 1.2383 0.70127 5.2142 2.6218 3.5938 4.875-1.1228 4.4655-0.52664 4.0231 1.5625 0.15625 0.51531 0.0704 0.96271 0.0153 1.4062-0.0625 0.47228-1.5445 0.93473-3.0721 1.2812-4.5625 0.43597-5.9369 3.8916-10.569 5.875-16.312 3.0921-1.4574 11.893 0.76585 6.5-5.1562-5.2289 2.3408-8.8966 0.67455-8.0938-5.4688-0.32941-3.9552-7.1136-0.62853-3.0625-6-0.74932-5.004-7.0119-14.73-3.0312-17.625l0.84375 0.34375c8.2394 0.33991 13.377-6.5922 21.406-6.625 1.2648-5.9332 11.402-10.982 12.344-2.0938-1.7052 7.6665 4.7348 14.514 0.8125 21.844-3.2291 2.0996-3.3269 6.4346-2.9062 10.281 4.6804 5.1251 12.535 4.9696 16.438-3.3438 3.5484-4.7523 19.436-2.0879 8.7355-1.489-7.1976 4.8557-9.5874 9.1406-18.236 12.395-2.8469 0.56414-4.5247-2.1742-1.4902 2.5248 3.5891 3.9098-0.95089 1.6044 6.2935-0.9206 6.2992-2.1462 13.878-4.9318 20.572-0.13546 3.2714 2.0384 8.4141 8.1473 0.625 5.875-8.7198-3.7752-18.26-3.7385-26.281 0.3125-2.4918 6.684-1.3463 13.63-6.9375 19.125-3.3629 7.4612-4.213 17.64 0.6875 24.438 1.0396 1.0081 1.6366 2.2091 2.0625 3.5 3.4864-5.1417 7.4856-10.297 12.281-15.406 4.8918-4.5589 12.12-9.728 16.094-11.469 9.3617-4.1004 26.407-5.5353 36.281-3.0625 21.241 5.3196 40.074 29.126 40.594 51.312 0.33029 2.5352 0.4845 5.0151 0.5 7.4375l33 6.4375c0.0762-1.2482 0.83255-2.3278 2.5625-2.9062 7.1143 1.8248 10.465-5.1483 12.125-9.6875 0.7747-4.6273 0.26433-9.3772 0.40625-14.062-1.1603-0.029-1.4384-1.5937-2.6562-1.5625-4.3649 0.93336-3.7298-4.0162-7.2188-4.5625 1.7007-2.3773 0.11814-3.1698-1.1875-4.7812 1.0865-5.5451-3.7635-6.7784-7.5312-9 0.21157-3.6783 9.3876 1.6784 8.1562-4.2812 1.5472-2.7132 5.1078-0.9615 7.6562-1.4062 2.5539 0.22913 5.909-0.9714 7.3125 1.9688 2.4195 2.3634 0.41007 7.1882 5.6562 6.5625 3.1406-1.3063 9.9952 1.6883 5.5938 4.2812-5.0061-1.3052-8.8154 5.2872-4.5 8.0625 3.4393 2.2259 9.2857 2.5401 9.625 8 2.3617 3.9919 0.0152 9.4184 3.75 12.844 3.3997 2.0086-2.0923 5.6361 2.5 7.3125 2.1493 8.4672-6.9265 4.6175-1.9375 16.812 7.9006 10.564 17.372 21.563 21.031 33.062 5.8569 2.1473 3.0279 9.3538 5.6875 13.344l7.3723 4.7457c8.8194 8.1023 8.8154 8.4056 18.687 10.987 4.4693 1.1685 8.5942 7.1554 13.096 8.9239-3.9452-152.33-123.55-276.24-273.84-279.97-2.4284-0.0603-4.8659-0.0965-7.2812-0.0937zm86.781 137.34c-2.92 0.0698-5.6665 0.40146-6.1875 1.0938-1.019 1.354 1.1012 5.1166 2.4375 12.281 2.5904 13.887 3.8151 18.719 4.75 18.719 0.31948 0 2.4313-5.9723 4.6875-13.281 4.8057-15.569 7.1755-16.583 1.5625-18.312-1.2413-0.38249-4.33-0.5698-7.25-0.5zm-15.75 3.0938c-3.4394 0.0936-12.781 5.076-12.781 7.25 0 2.549 18.172 23.669 20.469 22.938 0.94963 0 0.31131-4.22-0.3125-8.9062-1.0631-7.9874-4.3566-19.069-6.25-21-0.20419-0.20823-0.63366-0.29465-1.125-0.28125zm34.125 2c-1.953 0.079-2.95 2.7313-6.0312 12.812-2.2834 7.471-4.1562 14.509-4.1562 15.688 0 2.7323 2.4517 0.92508 13.969-10.312 4.611-4.4991 8.3714-8.9489 8.3438-9.875-0.0611-2.0699-5.9233-6.503-10.562-8-0.588-0.18974-1.1118-0.3307-1.5625-0.3125zm-53.594 12.281c-0.75075 0.0439-1.401 0.41985-2.0312 1.0625-7.4842 7.6316-7.4086 10.051-2.5 13.125 3.84 1.766 5.7611 2.0817 9.375 3.375l14.5 2.8125c0.0478-0.11308 0.0685-0.23319 0.0625-0.375 0.40682-3.1584-2.5181-3.9347-7.375-10.156-6.5762-7.2053-9.779-9.9756-12.031-9.8438zm71.938 3.3125c-2.2109 0-22.156 17.867-22.156 19.844 0 1.585 6.5668 0.6721 19.969-2.7188 4.8563-1.2287 8.1985-3.0072 8.5-4.5625 0.63094-3.2549-4.0525-12.562-6.3125-12.562zm-189.47 10.562c0.22228 0.26565 0.44282 0.5374 0.71875 0.78125 2.276 2.9723 4.3198 5.5372 4.875 8.9375 0.5279 1.7347 4.5385 4.1407 4.5 7.5 1.5751 2.2576 1.991 4.0629 3.8438 5.5938 3.0096 1.7275 2.6095 5.9074 5.2188 8.25 1.3419 2.6661 4.1957 5.0978 3.8125 8.9062 0.63935 3.3237 0.76043 7.2078 4.1562 8.625 1.2081 1.0654 2.6097 1.6612 2.0938 4.9375-0.40364 3.255 3.0971 4.2169 2.4375 7.8438v9.25c13.426-2.5214 22.973-7.0354 30.281-13 0.51562-6.3892 4.1517-9.9148 10.562-11.938 5.1839-4.1193-4.1712-11.482 2.8125-16.094 1.0074-3.2491 0.93647-6.4652 0.46875-9.6875l-33.875-6.5938c-1.6822-0.32837-2.8148-1.966-2.5312-3.6562l0.375-2.25zm-19.312 5.6875c-0.51453 0.0167-1.1023 0.23565-1.8438 0.6875-3.9691-1.8423-4.1726 1.4913-5.9375 2.625-0.3349 1.8709-1.8978 1.7024-2.4062 3.3438-1.7855 1.5667-2.1524 4.1106-4.875 4.875-0.42698 1.5322-2.6108 1.6143-2.4375 4.25-0.21722 3.137-0.16524 5.7938 2.4375 6.2188 1.0272 1.3863-0.46103 5.4573 1.0312 6.3438 2.3028 1.8351 2.661 4.8378 3.5 7.4375 0.6064 2.9714 1.5225 6.9514 3.0938 10.125-0.30916 3.6716 3.6218 5.0658 3.8125 8.9375 1.2538 2.8601 0.19574 7.7075 1.7812 10.469 0.43491 2.1704 0.67217 5.4407-0.0312 7.4688 6.9502 0.55933 15.661 2.0618 27.125-3.4688 3.3077-0.16378 0.94363-4.2199 2.0625-5.125 2.0635-1.7242 2.6593-3.4542 5.5938-2.9688 1.3356-1.5358 5.1666-0.8302 4.5-4 0.0514-2.9987 0.24005-6.6522-1.375-7.9688-1.013-1.301-1.4093-2.6008-2.7812-3.75-0.65735-0.59919-2.7565-2.4102-2.5625-3-1.9941-1.6871-4.3564-3.1041-5.0938-5.1875-0.992-2.2423-2.2451-3.599-2.4375-6.4375 2e-3 -2.4653 0.37577-5.3238-1.375-5.9062-0.73698-1.5415-1.9567-1.7216-2.8125-2.9688-0.92136-1.0106-2.1178-2.6186-3.0938-3.75-1.4325-0.25085-3.1399-2.4499-3.4062-3-1.7551-0.96248-2.1038-2.2977-4.25-4.4688-2.3852-2.1839-2.9753-3.7752-4.875-6.75-1.0875-2.372-1.8002-4.0812-3.3438-4.0312zm213.56 6.6875c-3.1472 0.0787-8.1002 0.99716-13.906 2.3438-0.2165 0.0502-0.41137 0.074-0.625 0.125l18.906 3.7188c-0.22207-1.4971-0.46706-3.1916-0.84375-5.3438-0.40074-0.64416-1.643-0.89095-3.5312-0.84375zm-41.5 3.2812c-2.5343 0-4.5938 1.9106-4.5938 4.25s2.0594 4.25 4.5938 4.25 4.5938-1.9106 4.5938-4.25-2.0594-4.25-4.5938-4.25zm-34.219 12.594c3.2386 3.4937 5.6026 6.4087 8.3125 11.062 2.7179-1.2347 5.3376-3.7149 7.3438-7.9688zm23.031 6.7188c-1.6223-0.0267-4.4443 1.4866-7.3125 4.5312-2.0458 1.4718-3.5493 3.0119-4.6875 4.5 4.4181 1.7014 6.5788 4.8255 8.6875 8.1875 0.27208-0.63604 0.55839-1.3234 0.78125-2.0938 1.4043-5.1496 3.0037-10.652 3.5938-12.219 0.7302-1.9392 0.19929-2.8854-1.0625-2.9062zm18.156 1.3438c4.7e-4 1.7825 0.83388 6.8821 2.0938 12.656 2.6764 16.826 8.0055 19.065 18.875 9.875 1.4504-8.2948-11.848-16.268-14.781-19-1.356-1.2629-2.6568-2.3043-3.7188-3.0625zm-8.2188 1.125c-0.0524-3e-3 -0.10895 1e-3 -0.15625 0.0312-1.3336 0.84049-6.2755 13.327-8.4688 21.156 0.44767 0.47351 0.95062 0.92998 1.4688 1.375 1.18 1.2532 4.7148 4.7381 8.0938 8.3438 2.9093-0.0737 5.2681-1.8017 5.375-4.7812-0.46033-2.013-2.2335-12.401-3.25-17.562-0.95285-4.839-2.2759-8.5154-3.0625-8.5625zm24.156 2c4.4414 4.9625 11.113 10.161 15.25 7.5 0.90571-2.5298 1.4808-3.4354 2.0625-4.1562zm77.688 0.875-1.8125 10.75c-0.28351 1.6903-1.8491 2.7971-3.5312 2.4688l-45.531-8.875c-5.6811 11.719-15.345 21.322-26.906 28.531 4.711 2.4214 50.752 7.9486 69.906 12.375 2.8567-3.0717 7.9452-3.0683 10.906-4.9062 0.87865-4.8827 0.30917-9.9005 0.46875-14.844-2.8681-1.9471-1.8376-4.079-1.5-6.4375-1.3227-2.0207-0.41236-4.7005-0.6875-7.0312 0.17534-3.7257-1.7387-7.2265-1.0312-11.031-0.0927-0.3052-0.18765-0.66955-0.28125-1zm16.782 7.8051c-0.25506 3.3284 0.21589 2.2142-1.3117 5.2886-0.29571 4.7117 0.50188 9.6987 0.81056 13.875-2.7948 1.5436-1.2368 1.7965-1.1875 5.0312-0.29367 2.7662 0.34312 7.2112 0.96875 9.8438-0.0685 2.0124 1.9826 3.3051 1.25 4.6562l18.758 0.49922c-2.3122-3.8974 9.3278-5.3708 4.4922-6.718-3.2405-3.9924-5.799-9.0701-8.4688-13.625-2.9592-4.1564-8.4517-7.0116-10.781-12.031-4.0715-2.1006-2.9964-6.4518-4.5301-6.8199z" style="color:#000000;fill:url(#linearGradient31195);stroke-width:.63;stroke:#000000"/><g id="text4044" transform="scale(1.0197 .98069)" style="fill-opacity:.96078;fill:#ffffff;stroke-width:.63;stroke:#000000" aria-label="Fear Knot, Doubt Knot
Trust In the Lord"><path id="path2" d="m271.89 678.29h4.12c5.4 0 6.48 4.6 6.96 6.72h1.36l-0.2-8h-21.96v1.28h3.32v23.64h-3.32v1.28h13.48v-1.28h-3.76v-11.32h0.64c1.6 0 4.68 0.08 5.16 4.88h1.28v-10.8h-1.44c-0.32 3.44-2.44 4.64-5 4.64h-0.64zm27.92 16.16c-0.56-6.36-5.36-7.44-7.64-7.44-4.88 0-7.92 4.32-7.92 8.24 0 3.68 2.52 8.44 8.2 8.44 2.6 0 6.2-1.08 7.36-5.92h-1.16c-1.48 4.48-5.04 4.48-5.44 4.48-2.76 0-3-1.68-3-5.28v-2.52zm-9.6-1.28v-1.6c0-1.8 0-3.44 2.04-3.44 2.16 0 2.16 1.92 2.16 3.4v1.64zm21.12 1.08c-2.08 0.08-9.92 0.36-9.92 5.6 0 1.92 1.4 3.84 4.52 3.84 3 0 4.68-1.48 5.68-2.36 0.56 0.8 1.6 2.36 3.84 2.36 2.04 0 3.28-1.28 3.84-1.92l-0.52-0.88c-0.52 0.32-0.72 0.36-0.92 0.36-1.2 0-1.2-1.48-1.2-2.12v-8.24c0-1.84-0.4-3.88-6.56-3.88-5.36 0-7.68 2.16-7.68 4.12 0 1.4 1.2 2.4 2.56 2.4 1.64 0 2.68-1.2 2.68-2.48 0-0.28-0.04-0.76-0.48-1.2-0.36-0.36-0.44-0.44-0.44-0.68 0-0.36 0.68-1.04 2.44-1.04 2.12 0 2.16 1 2.16 2.6zm0 3.56c0 1.32-0.04 3.6-2.4 3.6-1.28 0-2.32-0.96-2.32-2.84 0-2.68 1.8-3.16 4.72-3.28zm16.2-10.56h-0.68c-1.28 0.2-1.76 0.24-3.76 0.24h-2.6v1.2h2.04v13.32h-2.04v1.2h10.28v-1.2h-2.92v-5.36c0-3.88 0.64-5.92 1.28-6.96 0.68-1.08 1.36-1.16 1.48-1.16s0.32 0.04 0.32 0.2c0 0.08-0.08 0.2-0.12 0.24-0.4 0.48-0.56 1.16-0.56 1.64 0 0.96 0.84 2.08 2.08 2.08 1.04 0 2.08-0.88 2.08-2.52 0-1.68-1.08-3.16-2.88-3.16-1.28 0-3.2 0.92-3.92 4.56h-0.08zm27.88-8.96h3.32v-1.28h-13.16v1.28h3.44v23.64h-3.44v1.28h13.16v-1.28h-3.32zm5.28 7.6 4.72-4.72c2.8-2.8 3.6-2.88 5.72-2.88h1v-1.28h-10v1.28h1.76c0.44 0 1.52 0 1.52 0.64 0 0.48-0.76 1.28-1.08 1.6l-8.68 8.92 8.36 12.48h-3.2v1.28h13.76v-1.28h-3.04zm21.84 1.12h-0.56c-1.6 0.28-3.12 0.48-5.56 0.48h-1.44v1.2h2.24v13.32h-2.28v1.2h9.88v-1.2h-2.28v-7.76c0-0.8 0.04-2.4 0.76-3.48 0.8-1.2 2.2-2.08 3.12-2.08 1.52 0 1.52 1.36 1.52 2.4v10.92h-2.28v1.2h9.84v-1.2h-2.24v-10.64c0-0.56-0.08-1.88-0.44-2.4-0.56-0.8-2.08-1.96-4.4-1.96-3.52 0-5.08 2.2-5.8 3.32h-0.08zm14.64 8.36c0 3.72 2.68 8.32 8.6 8.32 5.8 0 8.68-4.32 8.68-8.32 0-4.04-2.96-8.36-8.68-8.36-5.64 0-8.6 4.4-8.6 8.36zm6.04 0c0-4.96 0.08-5.56 0.4-6.24 0.36-0.8 1.36-1.12 2.16-1.12 2.6 0 2.64 1.32 2.64 7.68 0 1.24 0 4.8-0.32 5.68-0.32 0.76-1.16 1.32-2.2 1.32s-1.92-0.52-2.24-1.2c-0.44-0.96-0.44-1.48-0.44-6.12zm20.4-12.76-5.28 0.92v3.96h-2.2v1.2h2.2v10.68c0 1.8 0 4.12 4.16 4.12 3.64 0 4.96-1.24 5.44-4.12h-1.2c-0.16 0.52-0.6 2.12-1.8 2.12-1.32 0-1.32-1.48-1.32-2.12v-10.68h3.96v-1.2h-3.96zm8.8 27.76c1.36-0.84 5.28-3.12 5.28-7.84 0-3.36-2.24-5.16-4.24-5.16-1.8 0-3.24 1.4-3.24 3.32 0 1.8 1.28 3 2.64 3 0.8 0 1.64-0.44 2-0.92 0.32-0.4 0.4-0.52 0.64-0.52 0.16 0 0.52 0.16 0.52 1.08 0 3.12-2.88 5.08-4.24 6.04zm20.8-8.44h-3.28v1.28h11.72c4.68 0 6.72-0.88 7.96-1.72 1.4-0.96 6.08-4.44 6.08-11.6 0-6.64-4.04-12.88-12.48-12.88h-13.28v1.28h3.28zm6.4-23.64h3.24c1.2 0 3.32 0 4.4 2.32 0.88 1.88 1.16 3.56 1.16 9 0 10.4-1.28 12.32-6.72 12.32h-2.08zm18.64 17.08c0 3.72 2.68 8.32 8.6 8.32 5.8 0 8.68-4.32 8.68-8.32 0-4.04-2.96-8.36-8.68-8.36-5.64 0-8.6 4.4-8.6 8.36zm6.04 0c0-4.96 0.08-5.56 0.4-6.24 0.36-0.8 1.36-1.12 2.16-1.12 2.6 0 2.64 1.32 2.64 7.68 0 1.24 0 4.8-0.32 5.68-0.32 0.76-1.16 1.32-2.2 1.32s-1.92-0.52-2.24-1.2c-0.44-0.96-0.44-1.48-0.44-6.12zm31.2-7.88h-7.92v1.2h2.6v7.36c0 1.4-0.04 2.52-0.64 3.52-0.84 1.4-2.48 2.24-3.44 2.24-1.32 0-1.32-1.08-1.32-3.92v-10.4h-7.56v1.2h2.24v9.84c0 1.44 0.08 2.36 0.48 3 0.6 1 2.2 1.96 4.4 1.96 2.56 0 4.8-1.32 5.76-3.2h0.08v3.2c0.72-0.04 1.12-0.2 1.6-0.2 0.8-0.04 2.28-0.08 2.68-0.08h3.28v-1.16h-2.24zm10.92-10.84h-0.56c-0.92 0.16-3.16 0.36-4.32 0.36h-2.56v1.2h2.12v23.8h-2.12v1.2h2.6c0.6 0 1.24 0 1.92 0.08 0.72 0.04 1.48 0.04 2.36 0.16h0.56v-2.16h0.08c0.44 0.76 1.52 2.4 3.96 2.4 3.2 0 6.48-3.44 6.48-8.52 0-5.36-3.48-8.16-6.4-8.16-2.48 0-3.48 1.36-4.04 2.2h-0.08zm0 16.92c0-2.2 0.56-3.56 1.2-4.36 0.64-0.84 1.36-1.08 1.68-1.08 1.6 0 1.6 1.84 1.6 4.88v4.32c0 3.56-0.24 5-1.64 5-0.12 0-0.84-0.04-1.52-0.64s-1.32-1.8-1.32-4.12zm19.56-10.96-5.28 0.92v3.96h-2.2v1.2h2.2v10.68c0 1.8 0 4.12 4.16 4.12 3.64 0 4.96-1.24 5.44-4.12h-1.2c-0.16 0.52-0.6 2.12-1.8 2.12-1.32 0-1.32-1.48-1.32-2.12v-10.68h3.96v-1.2h-3.96zm25.4-4.32h3.32v-1.28h-13.16v1.28h3.44v23.64h-3.44v1.28h13.16v-1.28h-3.32zm5.28 7.6 4.72-4.72c2.8-2.8 3.6-2.88 5.72-2.88h1v-1.28h-10v1.28h1.76c0.44 0 1.52 0 1.52 0.64 0 0.48-0.76 1.28-1.08 1.6l-8.68 8.92 8.36 12.48h-3.2v1.28h13.76v-1.28h-3.04zm21.84 1.12h-0.56c-1.6 0.28-3.12 0.48-5.56 0.48h-1.44v1.2h2.24v13.32h-2.28v1.2h9.88v-1.2h-2.28v-7.76c0-0.8 0.04-2.4 0.76-3.48 0.8-1.2 2.2-2.08 3.12-2.08 1.52 0 1.52 1.36 1.52 2.4v10.92h-2.28v1.2h9.84v-1.2h-2.24v-10.64c0-0.56-0.08-1.88-0.44-2.4-0.56-0.8-2.08-1.96-4.4-1.96-3.52 0-5.08 2.2-5.8 3.32h-0.08zm14.64 8.36c0 3.72 2.68 8.32 8.6 8.32 5.8 0 8.68-4.32 8.68-8.32 0-4.04-2.96-8.36-8.68-8.36-5.64 0-8.6 4.4-8.6 8.36zm6.04 0c0-4.96 0.08-5.56 0.4-6.24 0.36-0.8 1.36-1.12 2.16-1.12 2.6 0 2.64 1.32 2.64 7.68 0 1.24 0 4.8-0.32 5.68-0.32 0.76-1.16 1.32-2.2 1.32s-1.92-0.52-2.24-1.2c-0.44-0.96-0.44-1.48-0.44-6.12zm20.4-12.76-5.28 0.92v3.96h-2.2v1.2h2.2v10.68c0 1.8 0 4.12 4.16 4.12 3.64 0 4.96-1.24 5.44-4.12h-1.2c-0.16 0.52-0.6 2.12-1.8 2.12-1.32 0-1.32-1.48-1.32-2.12v-10.68h3.96v-1.2h-3.96z"/><path id="path3" d="m361.13 727.01-0.16 8.56h1.2c0.56-2.52 1.64-7.28 6-7.28h0.6v23.64h-3.96v1.28h14.32v-1.28h-3.96v-23.64h0.6c4.36 0 5.44 4.76 6 7.28h1.2l-0.16-8.56zm28.84 10.24h-0.68c-1.28 0.2-1.76 0.24-3.76 0.24h-2.6v1.2h2.04v13.32h-2.04v1.2h10.28v-1.2h-2.92v-5.36c0-3.88 0.64-5.92 1.28-6.96 0.68-1.08 1.36-1.16 1.48-1.16s0.32 0.04 0.32 0.2c0 0.08-0.08 0.2-0.12 0.24-0.4 0.48-0.56 1.16-0.56 1.64 0 0.96 0.84 2.08 2.08 2.08 1.04 0 2.08-0.88 2.08-2.52 0-1.68-1.08-3.16-2.88-3.16-1.28 0-3.2 0.92-3.92 4.56h-0.08zm27.28 0.24h-7.92v1.2h2.6v7.36c0 1.4-0.04 2.52-0.64 3.52-0.84 1.4-2.48 2.24-3.44 2.24-1.32 0-1.32-1.08-1.32-3.92v-10.4h-7.56v1.2h2.24v9.84c0 1.44 0.08 2.36 0.48 3 0.6 1 2.2 1.96 4.4 1.96 2.56 0 4.8-1.32 5.76-3.2h0.08v3.2c0.72-0.04 1.12-0.2 1.6-0.2 0.8-0.04 2.28-0.08 2.68-0.08h3.28v-1.16h-2.24zm15.72-0.48h-0.92l-0.92 1.12c-1.24-0.72-2.04-1.12-3.76-1.12-4.2 0-5.88 3-5.88 5.44 0 2.36 1.08 3.64 2.48 4.36 1.44 0.72 3.2 0.88 4.6 1.04 1.44 0.16 3.32 0.32 3.32 2 0 1.6-1.92 2.56-3.8 2.56-2.08 0-3.4-0.92-4.2-2-0.84-1.08-1.16-2.36-1.36-3.08h-1.16v5.72h0.88l1.24-1c0.6 0.52 1.88 1.64 4.56 1.64 4.04 0 6.12-2.8 6.12-6.08 0-4.56-3.92-5-6.72-5.28-2.44-0.24-3.76-0.6-3.76-1.88s1.6-2.24 3.36-2.24c2.84 0 3.96 1.36 4.72 3.68h1.2zm10.16-4.4-5.28 0.92v3.96h-2.2v1.2h2.2v10.68c0 1.8 0 4.12 4.16 4.12 3.64 0 4.96-1.24 5.44-4.12h-1.2c-0.16 0.52-0.6 2.12-1.8 2.12-1.32 0-1.32-1.48-1.32-2.12v-10.68h3.96v-1.2h-3.96zm25.36-4.32h3.56v-1.28h-13.4v1.28h3.44v23.64h-3.44v1.28h13.4v-1.28h-3.56zm12.56 8.72h-0.56c-1.6 0.28-3.12 0.48-5.56 0.48h-1.44v1.2h2.24v13.32h-2.28v1.2h9.88v-1.2h-2.28v-7.76c0-0.8 0.04-2.4 0.76-3.48 0.8-1.2 2.2-2.08 3.12-2.08 1.52 0 1.52 1.36 1.52 2.4v10.92h-2.28v1.2h9.84v-1.2h-2.24v-10.64c0-0.56-0.08-1.88-0.44-2.4-0.56-0.8-2.08-1.96-4.4-1.96-3.52 0-5.08 2.2-5.8 3.32h-0.08zm31.28-4.4-5.28 0.92v3.96h-2.2v1.2h2.2v10.68c0 1.8 0 4.12 4.16 4.12 3.64 0 4.96-1.24 5.44-4.12h-1.2c-0.16 0.52-0.6 2.12-1.8 2.12-1.32 0-1.32-1.48-1.32-2.12v-10.68h3.96v-1.2h-3.96zm13.12-5.96h-0.6c-1.6 0.28-3.48 0.36-5 0.36h-2.16v1.2h2.44v23.8h-2.28v1.2h9.88v-1.2h-2.28v-9.08c0.16-0.48 0.48-1.52 1.12-2.44s1.56-1.72 2.84-1.72c1.52 0 1.52 1.6 1.52 2.28v10.96h-2.24v1.2h9.8v-1.2h-2.24v-9.84c0-0.24 0-2.2-0.68-3.12-0.52-0.68-1.88-2.04-4.4-2.04-3.68 0-5.16 2.76-5.64 3.76h-0.08zm30.04 17.8c-0.56-6.36-5.36-7.44-7.64-7.44-4.88 0-7.92 4.32-7.92 8.24 0 3.68 2.52 8.44 8.2 8.44 2.6 0 6.2-1.08 7.36-5.92h-1.16c-1.48 4.48-5.04 4.48-5.44 4.48-2.76 0-3-1.68-3-5.28v-2.52zm-9.6-1.28v-1.6c0-1.8 0-3.44 2.04-3.44 2.16 0 2.16 1.92 2.16 3.4v1.64zm42.44 10.04 0.4-8.88h-1.2c-0.48 1.4-1.28 4-3.48 6.08-1.44 1.4-2.52 1.52-5.28 1.52h-2.48v-23.64h3.92v-1.28h-13.88v1.28h3.56v23.64h-3.56v1.28zm2.4-7.84c0 3.72 2.68 8.32 8.6 8.32 5.8 0 8.68-4.32 8.68-8.32 0-4.04-2.96-8.36-8.68-8.36-5.64 0-8.6 4.4-8.6 8.36zm6.04 0c0-4.96 0.08-5.56 0.4-6.24 0.36-0.8 1.36-1.12 2.16-1.12 2.6 0 2.64 1.32 2.64 7.68 0 1.24 0 4.8-0.32 5.68-0.32 0.76-1.16 1.32-2.2 1.32s-1.92-0.52-2.24-1.2c-0.44-0.96-0.44-1.48-0.44-6.12zm20-8.12h-0.68c-1.28 0.2-1.76 0.24-3.76 0.24h-2.6v1.2h2.04v13.32h-2.04v1.2h10.28v-1.2h-2.92v-5.36c0-3.88 0.64-5.92 1.28-6.96 0.68-1.08 1.36-1.16 1.48-1.16s0.32 0.04 0.32 0.2c0 0.08-0.08 0.2-0.12 0.24-0.4 0.48-0.56 1.16-0.56 1.64 0 0.96 0.84 2.08 2.08 2.08 1.04 0 2.08-0.88 2.08-2.52 0-1.68-1.08-3.16-2.88-3.16-1.28 0-3.2 0.92-3.92 4.56h-0.08zm24.8-10.6c-0.44 0-2.04 0.16-2.4 0.16-1.24 0.08-3.08 0.2-3.28 0.2h-2.8v1.2h3.16v10.8c-0.8-0.88-1.8-2-3.88-2-3.24 0-6.48 3.16-6.48 8.12 0 5.04 3.12 8.56 6.4 8.56 2.44 0 3.48-1.76 3.88-2.6h0.08v2.36h0.56c1.28-0.24 3.64-0.24 4.44-0.24h2.44v-1.16h-2.12zm-5.32 20.48c0 1.52-0.08 2.52-0.52 3.36-0.56 1.08-1.48 1.88-2.4 1.88-1.04 0-1.4-0.8-1.4-4.12v-5.88c0-1.72 0-4.24 1.56-4.24 0.52 0 2.76 0.6 2.76 4.8z"/></g><path id="text20330" d="m307.66 610.82h1.392c2.688 0 6.816-0.288 9.216-1.44 3.504-1.728 4.944-4.464 4.944-7.008 0-1.872-0.912-4.848-3.936-6.624-2.832-1.68-7.44-1.68-8.304-1.68h-14.928v1.536h3.936v28.368h-3.936v1.536h16.128v-1.536h-4.512zm0-15.216h1.68c3.216 0 5.712 0 5.712 6.768 0 6.912-2.544 6.912-5.808 6.912h-1.584zm26.208 10.464c-0.336 0-1.968 0.336-2.352 0.384-0.432 0.048-2.928 0.192-3.312 0.192h-2.976v1.44h2.256v15.984h-2.256v1.44h10.464v-1.44h-1.824zm-3.408-11.424c-1.92 0-3.408 1.536-3.408 3.408s1.488 3.456 3.408 3.456 3.456-1.584 3.456-3.456-1.536-3.408-3.456-3.408zm7.968 21.456c0 4.464 3.216 9.984 10.32 9.984 6.96 0 10.416-5.184 10.416-9.984 0-4.848-3.552-10.032-10.416-10.032-6.768 0-10.32 5.28-10.32 10.032zm7.248 0c0-5.952 0.096-6.672 0.48-7.488 0.432-0.96 1.632-1.344 2.592-1.344 3.12 0 3.168 1.584 3.168 9.216 0 1.488 0 5.76-0.384 6.816-0.384 0.912-1.392 1.584-2.64 1.584s-2.304-0.624-2.688-1.44c-0.528-1.152-0.528-1.776-0.528-7.344zm24.72-10.032h-0.672c-1.92 0.336-3.744 0.576-6.672 0.576h-1.728v1.44h2.688v15.984h-2.736v1.44h11.856v-1.44h-2.736v-9.312c0-0.96 0.048-2.88 0.912-4.176 0.96-1.44 2.64-2.496 3.744-2.496 1.824 0 1.824 1.632 1.824 2.88v13.104h-2.736v1.44h11.808v-1.44h-2.688v-12.768c0-0.672-0.096-2.256-0.528-2.88-0.672-0.96-2.496-2.352-5.28-2.352-4.224 0-6.096 2.64-6.96 3.984h-0.096zm36.048 8.928c-0.672-7.632-6.432-8.928-9.168-8.928-5.856 0-9.504 5.184-9.504 9.888 0 4.416 3.024 10.128 9.84 10.128 3.12 0 7.44-1.296 8.832-7.104h-1.392c-1.776 5.376-6.048 5.376-6.528 5.376-3.312 0-3.6-2.016-3.6-6.336v-3.024zm-11.52-1.536v-1.92c0-2.16 0-4.128 2.448-4.128 2.592 0 2.592 2.304 2.592 4.08v1.968zm32.016 1.536c-0.672-7.632-6.432-8.928-9.168-8.928-5.856 0-9.504 5.184-9.504 9.888 0 4.416 3.024 10.128 9.84 10.128 3.12 0 7.44-1.296 8.832-7.104h-1.392c-1.776 5.376-6.048 5.376-6.528 5.376-3.312 0-3.6-2.016-3.6-6.336v-3.024zm-11.52-1.536v-1.92c0-2.16 0-4.128 2.448-4.128 2.592 0 2.592 2.304 2.592 4.08v1.968zm21.264-7.104h-0.816c-1.536 0.24-2.112 0.288-4.512 0.288h-3.12v1.44h2.448v15.984h-2.448v1.44h12.336v-1.44h-3.504v-6.432c0-4.656 0.768-7.104 1.536-8.352 0.816-1.296 1.632-1.392 1.776-1.392s0.384 0.048 0.384 0.24c0 0.096-0.096 0.24-0.144 0.288-0.48 0.576-0.672 1.392-0.672 1.968 0 1.152 1.008 2.496 2.496 2.496 1.248 0 2.496-1.056 2.496-3.024 0-2.016-1.296-3.792-3.456-3.792-1.536 0-3.84 1.104-4.704 5.472h-0.096zm21.888-12.288-0.192 10.272h1.44c0.672-3.024 1.968-8.736 7.2-8.736h0.72v28.368h-4.752v1.536h17.184v-1.536h-4.752v-28.368h0.72c5.232 0 6.528 5.712 7.2 8.736h1.44l-0.192-10.272zm34.608 12.288h-0.816c-1.536 0.24-2.112 0.288-4.512 0.288h-3.12v1.44h2.448v15.984h-2.448v1.44h12.336v-1.44h-3.504v-6.432c0-4.656 0.768-7.104 1.536-8.352 0.816-1.296 1.632-1.392 1.776-1.392s0.384 0.048 0.384 0.24c0 0.096-0.096 0.24-0.144 0.288-0.48 0.576-0.672 1.392-0.672 1.968 0 1.152 1.008 2.496 2.496 2.496 1.248 0 2.496-1.056 2.496-3.024 0-2.016-1.296-3.792-3.456-3.792-1.536 0-3.84 1.104-4.704 5.472h-0.096zm28.752 8.64c-0.672-7.632-6.432-8.928-9.168-8.928-5.856 0-9.504 5.184-9.504 9.888 0 4.416 3.024 10.128 9.84 10.128 3.12 0 7.44-1.296 8.832-7.104h-1.392c-1.776 5.376-6.048 5.376-6.528 5.376-3.312 0-3.6-2.016-3.6-6.336v-3.024zm-11.52-1.536v-1.92c0-2.16 0-4.128 2.448-4.128 2.592 0 2.592 2.304 2.592 4.08v1.968zm21.984-19.824h-1.248c-2.448 0.192-5.184 0.432-5.616 0.432h-2.16v1.44h2.688v28.56h-2.688v1.44h11.184v-1.44h-2.16v-8.352h0.096l5.904 8.352h-2.496v1.44h12v-1.44h-1.872l-8.448-11.616 2.304-2.304c2.16-2.16 3.36-2.064 5.232-2.064h0.72v-1.44h-9.936v1.44h1.296c0.24 0 1.68 0 1.68 0.72 0 0.288-1.248 1.536-1.488 1.824l-4.992 4.8zm49.44 21.696h-1.536c-0.096 4.128-0.96 4.128-2.592 4.128h-11.76v-0.096l9.408-6.48c4.32-3.024 6.96-6.288 6.96-10.08 0-4.752-4.608-8.592-10.512-8.592-5.856 0-9.312 3.936-9.312 8.112 0 3.696 2.736 4.704 4.032 4.704 1.344 0 3.456-1.104 3.456-3.504 0-3.072-2.4-3.36-3.984-3.552-0.24-0.048-0.72-0.144-0.72-0.768 0-1.68 2.4-2.976 4.704-2.976 3.696 0 4.608 3.792 4.608 7.44 0 6.096-1.44 7.92-10.224 15.264-1.488 1.248-1.92 1.68-2.688 2.4v4.176h19.44zm24.48-5.04c0-9.648-4.944-16.08-10.656-16.08-6.288 0-10.752 7.584-10.752 15.888 0 8.784 4.896 15.984 10.656 15.984 2.352 0 4.944-1.44 6.624-3.504 3.408-4.176 4.128-10.128 4.128-12.288zm-7.68-3.216c-0.096 4.896-0.192 7.152-0.288 10.32-0.144 4.224-0.576 7.152-2.88 7.152-0.816 0-1.536-0.096-2.064-1.824-0.288-0.912-0.816-3.888-0.816-11.52 0-2.736 0.144-12.048 1.008-13.92 0.528-1.152 1.2-1.536 2.016-1.536 1.104 0 1.584 0.72 1.92 1.392 0.624 1.296 1.2 5.616 1.104 9.936zm30.24 8.256h-1.536c-0.096 4.128-0.96 4.128-2.592 4.128h-11.76v-0.096l9.408-6.48c4.32-3.024 6.96-6.288 6.96-10.08 0-4.752-4.608-8.592-10.512-8.592-5.856 0-9.312 3.936-9.312 8.112 0 3.696 2.736 4.704 4.032 4.704 1.344 0 3.456-1.104 3.456-3.504 0-3.072-2.4-3.36-3.984-3.552-0.24-0.048-0.72-0.144-0.72-0.768 0-1.68 2.4-2.976 4.704-2.976 3.696 0 4.608 3.792 4.608 7.44 0 6.096-1.44 7.92-10.224 15.264-1.488 1.248-1.92 1.68-2.688 2.4v4.176h19.44zm23.52 0h-1.536c-0.096 4.128-0.96 4.128-2.592 4.128h-11.76v-0.096l9.408-6.48c4.32-3.024 6.96-6.288 6.96-10.08 0-4.752-4.608-8.592-10.512-8.592-5.856 0-9.312 3.936-9.312 8.112 0 3.696 2.736 4.704 4.032 4.704 1.344 0 3.456-1.104 3.456-3.504 0-3.072-2.4-3.36-3.984-3.552-0.24-0.048-0.72-0.144-0.72-0.768 0-1.68 2.4-2.976 4.704-2.976 3.696 0 4.608 3.792 4.608 7.44 0 6.096-1.44 7.92-10.224 15.264-1.488 1.248-1.92 1.68-2.688 2.4v4.176h19.44z" style="fill:#ffffff" aria-label="Pioneer Trek 2022"/></g></svg>
