<?xml version="1.0" encoding="UTF-8" standalone="no"?>
<!-- Created with Inkscape (http://www.inkscape.org/) -->
<svg width="601.99811" height="462.26797" id="svg2" version="1.1"
   inkscape:version="1.1.2 (1:1.1+202202050950+0a00cf5339)"
   sodipodi:docname="trek-logo.svg"
   xmlns:inkscape="http://www.inkscape.org/namespaces/inkscape"
   xmlns:sodipodi="http://sodipodi.sourceforge.net/DTD/sodipodi-0.dtd"
   xmlns:xlink="http://www.w3.org/1999/xlink" xmlns="http://www.w3.org/2000/svg"
   xmlns:svg="http://www.w3.org/2000/svg"
   xmlns:rdf="http://www.w3.org/1999/02/22-rdf-syntax-ns#"
   xmlns:cc="http://creativecommons.org/ns#"
   xmlns:dc="http://purl.org/dc/elements/1.1/">
   <defs id="defs4">
      <linearGradient inkscape:collect="always" id="linearGradient31521">
         <stop style="stop-color:#daa928;stop-opacity:1" offset="0"
            id="stop31517" />
         <stop style="stop-color:#feff33;stop-opacity:1" offset="1"
            id="stop31519" />
      </linearGradient>
      <inkscape:perspective sodipodi:type="inkscape:persp3d"
         inkscape:vp_x="0 : 526.18109 : 1" inkscape:vp_y="0 : 1000 : 0"
         inkscape:vp_z="744.09448 : 526.18109 : 1"
         inkscape:persp3d-origin="372.04724 : 350.78739 : 1"
         id="perspective139" />
      <linearGradient inkscape:collect="always" id="linearGradient3764">
         <stop style="stop-color:#800080;stop-opacity:1;" offset="0"
            id="stop3766" />
         <stop style="stop-color:#ffffff;stop-opacity:1" offset="1"
            id="stop3768" />
      </linearGradient>
      <linearGradient inkscape:collect="always" id="linearGradient3738-1">
         <stop style="stop-color:#ffff00;stop-opacity:1" offset="0"
            id="stop3740" />
         <stop style="stop-color:#008080;stop-opacity:1" offset="1"
            id="stop3742" />
      </linearGradient>
      <linearGradient inkscape:collect="always" id="linearGradient3764-7">
         <stop style="stop-color:#800080;stop-opacity:1;" offset="0"
            id="stop3766-4" />
         <stop style="stop-color:#ffffff;stop-opacity:1" offset="1"
            id="stop3768-0" />
      </linearGradient>
      <linearGradient inkscape:collect="always" xlink:href="#linearGradient3764"
         id="linearGradient3286" gradientUnits="userSpaceOnUse" x1="383.08078"
         y1="340.57196" x2="382.02545" y2="295.9389" />
      <linearGradient inkscape:collect="always" xlink:href="#linearGradient3764"
         id="linearGradient3290" gradientUnits="userSpaceOnUse" x1="383.08078"
         y1="340.57196" x2="382.02545" y2="295.9389" />
      <linearGradient inkscape:collect="always"
         xlink:href="#linearGradient3738-1" id="linearGradient3292"
         gradientUnits="userSpaceOnUse"
         gradientTransform="matrix(1.0460326,0,0,1.0460326,571.67353,217.81726)"
         x1="440.05624" y1="303.60938" x2="438.93362" y2="264.39276" />
      <linearGradient inkscape:collect="always"
         xlink:href="#linearGradient3764-7" id="linearGradient3294"
         gradientUnits="userSpaceOnUse" x1="383.08078" y1="340.57196"
         x2="382.02545" y2="295.9389" />
      <linearGradient inkscape:collect="always"
         xlink:href="#linearGradient3738-1" id="linearGradient3296"
         gradientUnits="userSpaceOnUse"
         gradientTransform="matrix(0.88453328,0,0,0.88453328,793.50437,338.45441)"
         x1="440.05624" y1="303.60938" x2="438.93362" y2="264.39276" />
      <linearGradient inkscape:collect="always"
         xlink:href="#linearGradient3738-1" id="linearGradient3366"
         gradientUnits="userSpaceOnUse"
         gradientTransform="matrix(0.66340293,0,0,0.66340293,-92.139518,350.49539)"
         x1="440.05624" y1="303.60938" x2="438.93362" y2="264.39276" />
      <linearGradient inkscape:collect="always" xlink:href="#linearGradient3764"
         id="linearGradient3200" gradientUnits="userSpaceOnUse" x1="383.08078"
         y1="340.57196" x2="382.02545" y2="295.9389" />
      <linearGradient inkscape:collect="always"
         xlink:href="#linearGradient3738-1" id="linearGradient3202"
         gradientUnits="userSpaceOnUse"
         gradientTransform="matrix(0.66340293,0,0,0.66340293,-92.139518,350.49539)"
         x1="440.05624" y1="303.60938" x2="438.93362" y2="264.39276" />
      <inkscape:perspective id="perspective2974"
         inkscape:persp3d-origin="0.5 : 0.33333333 : 1"
         inkscape:vp_z="1 : 0.5 : 1" inkscape:vp_y="0 : 1000 : 0"
         inkscape:vp_x="0 : 0.5 : 1" sodipodi:type="inkscape:persp3d" />
      <inkscape:perspective id="perspective3760"
         inkscape:persp3d-origin="0.5 : 0.33333333 : 1"
         inkscape:vp_z="1 : 0.5 : 1" inkscape:vp_y="0 : 1000 : 0"
         inkscape:vp_x="0 : 0.5 : 1" sodipodi:type="inkscape:persp3d" />
      <linearGradient inkscape:collect="always"
         xlink:href="#linearGradient31521" id="linearGradient31195"
         x1="90.276802" y1="453.03198" x2="650.11011" y2="455.8772"
         gradientUnits="userSpaceOnUse" spreadMethod="pad" />
   </defs>
   <sodipodi:namedview id="base" pagecolor="#ffffff" bordercolor="#666666"
      borderopacity="1.0" inkscape:pageopacity="0.0" inkscape:pageshadow="2"
      inkscape:zoom="2.0990887" inkscape:cx="302.75042" inkscape:cy="173.88498"
      inkscape:document-units="px" inkscape:current-layer="layer1"
      showgrid="false" inkscape:window-width="2324"
      inkscape:window-height="1765" inkscape:window-x="2403"
      inkscape:window-y="98" inkscape:window-maximized="0" showguides="true"
      inkscape:guide-bbox="true" fit-margin-top="0" fit-margin-left="0"
      fit-margin-right="0" fit-margin-bottom="0"
      inkscape:pagecheckerboard="0" />
   <metadata id="metadata7">
      <rdf:RDF>
         <cc:Work rdf:about="">
            <dc:format>image/svg+xml</dc:format>
            <dc:type rdf:resource="http://purl.org/dc/dcmitype/StillImage" />
         </cc:Work>
      </rdf:RDF>
   </metadata>
   <g inkscape:label="Layer 1" inkscape:groupmode="layer" id="layer1"
      transform="translate(-71.048187,-295.04711)">
      <rect
         style="color:#000000;display:inline;overflow:visible;visibility:visible;fill:#000000;stroke:none;stroke-width:0.679106;marker:none;enable-background:accumulate"
         id="rect3974" width="601.99811" height="462.26797" x="71.048187"
         y="295.04712" />
      <path
         style="color:#000000;display:inline;overflow:visible;visibility:visible;fill:url(#linearGradient31195);fill-opacity:1;fill-rule:nonzero;stroke:#000000;stroke-width:0.63;stroke-miterlimit:4;stroke-dasharray:none;stroke-opacity:1;marker:none;enable-background:accumulate"
         d="m 372.37539,309.14102 c -152.16624,0.17493 -277.574279,124.82612 -281.687497,281.75 -0.04798,1.83032 -0.07973,3.66947 -0.09375,5.5 l 15.937497,0.53125 51.0625,-10.3125 c 0,0 10.77089,-5.82377 25.90625,-10.4375 13.95927,-4.25523 20.96875,-2.96875 20.96875,-2.96875 l 37.46875,-9 -0.0312,0.34375 8.875,-1 c 0.73857,-1.96263 -1.57156,-4.97579 6.03125,-6.375 0.017,-0.0169 0.0765,-0.0145 0.0937,-0.0312 1.33424,-1.29171 3.81268,-1.93301 5.71875,-2.8125 1.05089,-1.83673 2.38819,-1.88005 3.15625,-4.125 1.3113,-0.93698 3.6068,-4.14456 3.09375,-7.375 0.91516,-3.30128 -1.91057,-5.02844 -2.40625,-5.9375 -1.34064,-1.87324 -0.21502,-6.32335 -1.40625,-8.3125 -0.99382,-2.38912 -2.28853,-2.93652 -2.75,-5.21875 -1.16394,-1.61351 -1.41979,-3.77636 -2.8125,-5.625 -1.31283,-1.27554 -1.53802,-2.81928 -3.125,-4.5 -1.40496,-1.74195 -1.60905,-2.10606 -3.125,-3.71875 0.52309,-3.72246 -1.8346,-3.94683 -2.09375,-7.15625 -0.53286,-3.75429 2.74773,-5.57375 2.4375,-9.28125 1.08284,-2.54167 -0.8932,-7.64652 2.21875,-8.21875 1.06918,-0.96186 0.71343,-5.5546 2.3125,-7.09375 0.63016,-2.27349 -0.13203,-6.38556 1.375,-7.09375 0.74756,-0.71554 2.25725,-0.61663 3.46875,-1 l -7.21875,-1.3438 c -1.05372,-0.1958 -1.70252,-1.20405 -1.46875,-2.25 l 0.59375,-2.6875 c 0.23376,-1.04594 1.29004,-1.72706 2.34375,-1.53125 l 10.0625,1.875 c 0.15925,-0.89786 0.37618,-1.83935 0.9375,-2.78125 -8.4e-4,-3.61031 9.8e-4,-7.20226 0,-10.8125 -1.08899,-0.63111 -2.85041,-3.07876 -3.53125,-3.59375 -2.79146,-2.22418 -4.55642,-5.03759 -6.25,-8.375 -1.22296,-2.17621 -1.0611,-5.40555 -1,-8.59375 -0.83244,-1.85963 -1.6674,-4.43901 -2.8125,-6.34375 v -13.0625 c -1.03448,-2.20307 -1.1029,-2.65168 -2.4375,-3.5 -0.63532,-2.26367 -1.02098,-3.78703 -2.40625,-6.21875 -1.27273,-1.70915 -1.5604,-1.51095 -4.875,-1.46875 -1.92328,-0.0999 -6.1274,3.20327 -5.1875,-2.625 -1.36207,-0.49811 -2.61779,-0.47601 -2.4375,-2.625 -1.17039,-1.7197 -5.26584,0.84247 -3.5,-3.53125 0.67656,-4.13913 -1.28487,-5.44218 -1.03125,-9.125 0.19618,-2.2036 1.62031,-3.70287 0.71875,-7.53125 0.78087,-2.33156 2.86556,-3.20037 5.90625,-4.09375 2.1741,-0.84967 4.59431,-1.39115 7.625,-1.09375 0.37419,-0.0914 0.72354,-0.16804 1.03125,-0.1875 2.154,-0.13635 2.82682,1.32127 4.1875,2.03125 1.93618,1.17137 4.45042,1.30402 5.21875,3.75 1.12753,1.69412 1.15061,4.30437 1,7.09375 v 5.15625 c 0.69806,1.4425 5.41072,1.28622 8.34375,3.0625 -0.24267,0.0722 5.13327,0.50265 5.25,2.59375 1.74838,1.74101 3.20139,1.88094 4.53125,4.125 1.76536,0.50888 1.39786,4.16505 3.8125,5.21875 1.02568,1.34304 1.85744,3.51572 2.09375,5.625 2.23442,1.05454 2.81478,3.30454 5.53125,3.71875 1.92376,1.06052 2.1544,4.7334 3.15625,6.34375 1.84747,0.90468 1.14623,5.05165 2.40625,6.71875 1.36392,1.43005 3.01283,3.92478 0.6875,5.59375 -1.10795,2.19181 -1.0983,5.87014 -1,9.21875 0.40675,2.02941 -0.24112,6.47878 1,6.875 2.6963,-1.60882 4.06173,0.46392 4.53125,3.71875 1.02723,2.16553 -0.67957,6.82336 1.375,8.21875 0.75783,1.70471 2.29576,2.69503 1.4375,5.375 -0.54495,3.22898 0.96739,5.34878 1.71875,7.71875 0.0148,0.0343 0.0165,0.0591 0.0312,0.0937 l 43.90625,8.15625 1.625,-9.59375 c 0.2835,-1.6903 1.84909,-2.79713 3.53125,-2.46875 l 27.8125,5.4375 c 0.47726,-2.91721 1.11071,-5.82012 1.34375,-8.78125 -1.98353,1.08362 -3.90476,2.08136 -5.59375,2.90625 -2.42954,0.734 -4.63565,-1.40667 -7.0625,-1.65625 -2.52195,-0.78408 -5.34206,-2.38986 -6.0625,-5.75 -0.22123,-2.24602 -3.44204,-3.16861 -1.3125,-5.40625 1.65002,-1.47812 0.79897,-3.68821 -1.15625,-3.34375 -1.74542,0.11985 -3.02308,-2.25181 -3.9375,-2.78125 -0.59507,1.99417 -3.71787,3.20288 -5.25,2.09375 -3.01562,-0.088 1.88679,-4.68179 -1.125,-5.65625 -1.75454,0.0851 -2.80767,0.38747 -3.3125,-2.71875 -0.43156,-2.91083 0.93818,-5.6667 1.28125,-8.53125 0.87359,-3.53805 5.15793,1.36888 6.25,-2.3125 0.43984,-0.0496 0.86044,0.23358 1.25,0.4375 l 0.28125,0.625 c 0.65017,-2.37132 2.71431,-7.29753 5.90625,-6 2.00176,1.40314 -2.88322,5.75985 0.1875,5.84375 1.31454,-0.39254 3.55017,2.06466 3.25,-0.40625 1.55038,-1.81824 3.31889,1.11789 2.40625,2.90625 1.23826,0.70127 5.21417,2.62182 3.59375,4.875 -1.12283,4.4655 -0.52664,4.02312 1.5625,0.15625 0.51531,0.0704 0.96271,0.0153 1.40625,-0.0625 0.47228,-1.5445 0.93473,-3.07206 1.28125,-4.5625 0.43597,-5.93689 3.89158,-10.56866 5.875,-16.3125 3.09211,-1.45738 11.89261,0.76585 6.5,-5.15625 -5.22894,2.34082 -8.89663,0.67455 -8.09375,-5.46875 -0.32941,-3.95524 -7.11356,-0.62853 -3.0625,-6 -0.74932,-5.00396 -7.01187,-14.73027 -3.03125,-17.625 l 0.84375,0.34375 c 8.23939,0.33991 13.37653,-6.5922 21.40625,-6.625 1.26483,-5.93319 11.40249,-10.98196 12.34375,-2.09375 -1.70518,7.66653 4.73484,14.51375 0.8125,21.84375 -3.22913,2.09955 -3.32691,6.43457 -2.90625,10.28125 4.68045,5.12511 12.53494,4.96965 16.4375,-3.34375 3.54841,-4.75234 19.43567,-2.08788 8.73551,-1.489 -7.19764,4.85569 -9.5874,9.14063 -18.23551,12.39525 -2.84691,0.56414 -4.52469,-2.17425 -1.49021,2.52481 3.58909,3.90985 -0.95089,1.60437 6.29346,-0.9206 6.29916,-2.1462 13.87775,-4.93175 20.57175,-0.13546 3.27141,2.03835 8.41411,8.14734 0.625,5.875 -8.71975,-3.77523 -18.25983,-3.73848 -26.28125,0.3125 -2.49179,6.684 -1.34634,13.62994 -6.9375,19.125 -3.3629,7.46118 -4.21298,17.63982 0.6875,24.4375 1.03964,1.00807 1.63664,2.20908 2.0625,3.5 3.48644,-5.1417 7.48562,-10.29688 12.28125,-15.40625 4.89181,-4.5589 12.11964,-9.72803 16.09375,-11.46875 9.36174,-4.10044 26.40737,-5.53534 36.28125,-3.0625 21.24091,5.31961 40.07448,29.12571 40.59375,51.3125 0.33029,2.53515 0.4845,5.01507 0.5,7.4375 l 33,6.4375 c 0.0762,-1.24825 0.83255,-2.32779 2.5625,-2.90625 7.11434,1.82477 10.46481,-5.1483 12.125,-9.6875 0.7747,-4.62733 0.26433,-9.37725 0.40625,-14.0625 -1.16031,-0.029 -1.43842,-1.5937 -2.65625,-1.5625 -4.36486,0.93336 -3.72977,-4.01622 -7.21875,-4.5625 1.70066,-2.3773 0.11814,-3.16984 -1.1875,-4.78125 1.08654,-5.54506 -3.76352,-6.77838 -7.53125,-9 0.21157,-3.6783 9.38763,1.67844 8.15625,-4.28125 1.54722,-2.71316 5.10785,-0.9615 7.65625,-1.40625 2.55391,0.22913 5.90897,-0.9714 7.3125,1.96875 2.41952,2.36341 0.41007,7.1882 5.65625,6.5625 3.14059,-1.30626 9.99525,1.68827 5.59375,4.28125 -5.00612,-1.3052 -8.81544,5.28715 -4.5,8.0625 3.43928,2.2259 9.28574,2.54008 9.625,8 2.36174,3.9919 0.0152,9.41844 3.75,12.84375 3.3997,2.00863 -2.09233,5.63613 2.5,7.3125 2.14933,8.46724 -6.9265,4.61747 -1.9375,16.8125 7.90065,10.56426 17.3721,21.563 21.03125,33.0625 5.8569,2.14734 3.02787,9.3538 5.6875,13.34375 l 7.37228,4.74573 c 8.81935,8.10226 8.81543,8.40563 18.68749,10.98659 4.46931,1.16847 8.59423,7.15539 13.09648,8.92393 -3.94524,-152.32669 -123.54858,-276.23596 -273.8437,-279.9687 -2.42843,-0.0603 -4.86591,-0.0965 -7.28125,-0.0937 z m 86.78125,137.34375 c -2.92004,0.0698 -5.66653,0.40146 -6.1875,1.09375 -1.01897,1.35403 1.10119,5.11664 2.4375,12.28125 2.59037,13.88738 3.81508,18.71875 4.75,18.71875 0.31948,0 2.43132,-5.97228 4.6875,-13.28125 4.80572,-15.5691 7.17552,-16.58265 1.5625,-18.3125 -1.24128,-0.38249 -4.32997,-0.5698 -7.25,-0.5 z m -15.75,3.09375 c -3.43943,0.0936 -12.78125,5.07603 -12.78125,7.25 0,2.549 18.17241,23.66887 20.46875,22.9375 0.94963,0 0.31131,-4.21997 -0.3125,-8.90625 -1.0631,-7.98739 -4.35664,-19.06942 -6.25,-21 -0.20419,-0.20823 -0.63366,-0.29465 -1.125,-0.28125 z m 34.125,2 c -1.953,0.079 -2.95003,2.73126 -6.03125,12.8125 -2.28345,7.47098 -4.15625,14.50893 -4.15625,15.6875 0,2.73233 2.45172,0.92508 13.96875,-10.3125 4.61101,-4.49908 8.37135,-8.94886 8.34375,-9.875 -0.0611,-2.0699 -5.92332,-6.50302 -10.5625,-8 -0.588,-0.18974 -1.11181,-0.3307 -1.5625,-0.3125 z m -53.59375,12.28125 c -0.75075,0.0439 -1.40101,0.41985 -2.03125,1.0625 -7.48418,7.6316 -7.40864,10.05115 -2.5,13.125 3.84005,1.76598 5.76109,2.08174 9.375,3.375 l 14.5,2.8125 c 0.0478,-0.11308 0.0685,-0.23319 0.0625,-0.375 0.40682,-3.1584 -2.51813,-3.93469 -7.375,-10.15625 -6.57618,-7.20533 -9.77898,-9.97557 -12.03125,-9.84375 z m 71.9375,3.3125 c -2.21093,0 -22.15625,17.86717 -22.15625,19.84375 0,1.585 6.56685,0.6721 19.96875,-2.71875 4.85628,-1.22871 8.19851,-3.00725 8.5,-4.5625 0.63094,-3.25493 -4.05248,-12.5625 -6.3125,-12.5625 z m -189.46875,10.5625 c 0.22228,0.26565 0.44282,0.5374 0.71875,0.78125 2.27603,2.97231 4.31982,5.53723 4.875,8.9375 0.5279,1.73468 4.5385,4.14071 4.5,7.5 1.57506,2.25758 1.991,4.06287 3.84375,5.59375 3.00962,1.72748 2.60951,5.90739 5.21875,8.25 1.34187,2.66606 4.19574,5.09777 3.8125,8.90625 0.63935,3.32368 0.76043,7.20784 4.15625,8.625 1.20813,1.06541 2.6097,1.66125 2.09375,4.9375 -0.40364,3.25503 3.09711,4.21687 2.4375,7.84375 v 9.25 c 13.42608,-2.52138 22.97268,-7.03538 30.28125,-13 0.51562,-6.3892 4.15172,-9.91476 10.5625,-11.9375 5.18392,-4.11933 -4.17124,-11.48219 2.8125,-16.09375 1.00742,-3.24912 0.93647,-6.46521 0.46875,-9.6875 l -33.875,-6.59375 c -1.68216,-0.32837 -2.81475,-1.96595 -2.53125,-3.65625 l 0.375,-2.25 z m -19.3125,5.6875 c -0.51453,0.0167 -1.10229,0.23565 -1.84375,0.6875 -3.96909,-1.8423 -4.17259,1.49134 -5.9375,2.625 -0.3349,1.87086 -1.89778,1.70244 -2.40625,3.34375 -1.78552,1.56666 -2.15236,4.11059 -4.875,4.875 -0.42698,1.53215 -2.61075,1.61433 -2.4375,4.25 -0.21722,3.13697 -0.16524,5.79377 2.4375,6.21875 1.02725,1.38627 -0.46103,5.45732 1.03125,6.34375 2.3028,1.83506 2.66098,4.83777 3.5,7.4375 0.6064,2.97142 1.52246,6.95144 3.09375,10.125 -0.30916,3.67165 3.6218,5.06578 3.8125,8.9375 1.25384,2.86014 0.19574,7.7075 1.78125,10.46875 0.43491,2.17042 0.67217,5.44072 -0.0312,7.46875 6.95023,0.55933 15.66147,2.06177 27.125,-3.46875 3.30766,-0.16378 0.94363,-4.21994 2.0625,-5.125 2.06349,-1.72416 2.65928,-3.45415 5.59375,-2.96875 1.33564,-1.53581 5.1666,-0.8302 4.5,-4 0.0514,-2.99871 0.24005,-6.65215 -1.375,-7.96875 -1.01296,-1.30104 -1.40934,-2.60082 -2.78125,-3.75 -0.65735,-0.59919 -2.7565,-2.41025 -2.5625,-3 -1.99413,-1.68713 -4.35643,-3.10414 -5.09375,-5.1875 -0.992,-2.24232 -2.24509,-3.59895 -2.4375,-6.4375 0.002,-2.46534 0.37577,-5.32375 -1.375,-5.90625 -0.73698,-1.54147 -1.95669,-1.72165 -2.8125,-2.96875 -0.92136,-1.01063 -2.11784,-2.61861 -3.09375,-3.75 -1.43249,-0.25085 -3.13992,-2.4499 -3.40625,-3 -1.75511,-0.96248 -2.10381,-2.29771 -4.25,-4.46875 -2.3852,-2.18386 -2.97532,-3.77524 -4.875,-6.75 -1.08751,-2.37198 -1.80015,-4.08125 -3.34375,-4.03125 z m 213.5625,6.6875 c -3.14715,0.0787 -8.10019,0.99716 -13.90625,2.34375 -0.2165,0.0502 -0.41137,0.074 -0.625,0.125 l 18.90625,3.71875 c -0.22207,-1.49706 -0.46706,-3.1916 -0.84375,-5.34375 -0.40074,-0.64416 -1.64296,-0.89095 -3.53125,-0.84375 z m -41.5,3.28125 c -2.53434,0 -4.59375,1.91061 -4.59375,4.25 0,2.33939 2.05941,4.25 4.59375,4.25 2.53434,0 4.59375,-1.91061 4.59375,-4.25 0,-2.33939 -2.05941,-4.25 -4.59375,-4.25 z m -34.21875,12.59375 c 3.23865,3.49372 5.60258,6.4087 8.3125,11.0625 2.71791,-1.23469 5.33761,-3.71486 7.34375,-7.96875 z m 23.03125,6.71875 c -1.62231,-0.0267 -4.44428,1.48657 -7.3125,4.53125 -2.04584,1.47183 -3.54933,3.01194 -4.6875,4.5 4.4181,1.70138 6.57881,4.82549 8.6875,8.1875 0.27208,-0.63604 0.55839,-1.32338 0.78125,-2.09375 1.4043,-5.14955 3.00366,-10.65156 3.59375,-12.21875 0.7302,-1.93919 0.19929,-2.88545 -1.0625,-2.90625 z m 18.15625,1.34375 c 4.7e-4,1.78254 0.83388,6.88209 2.09375,12.65625 2.67645,16.8262 8.00546,19.06466 18.875,9.875 1.45045,-8.29478 -11.84832,-16.26842 -14.78125,-19 -1.35604,-1.26294 -2.65684,-2.30434 -3.71875,-3.0625 z m -8.21875,1.125 c -0.0524,-0.003 -0.10895,10e-4 -0.15625,0.0312 -1.33359,0.84049 -6.27553,13.32712 -8.46875,21.15625 0.44767,0.47351 0.95062,0.92998 1.46875,1.375 1.18001,1.2532 4.71478,4.73813 8.09375,8.34375 2.90931,-0.0737 5.26809,-1.80174 5.375,-4.78125 -0.46033,-2.01296 -2.23351,-12.40092 -3.25,-17.5625 -0.95285,-4.83898 -2.27587,-8.5154 -3.0625,-8.5625 z m 24.15625,2 c 4.44136,4.96251 11.11259,10.16104 15.25,7.5 0.90571,-2.52978 1.48081,-3.43537 2.0625,-4.15625 z m 77.6875,0.875 -1.8125,10.75 c -0.28351,1.69029 -1.84909,2.79712 -3.53125,2.46875 l -45.53125,-8.875 c -5.68113,11.71887 -15.34499,21.32237 -26.90625,28.53125 4.71098,2.42145 50.75168,7.94857 69.90625,12.375 2.85671,-3.0717 7.94518,-3.06833 10.90625,-4.90625 0.87865,-4.88266 0.30917,-9.90048 0.46875,-14.84375 -2.86814,-1.94713 -1.83763,-4.07901 -1.5,-6.4375 -1.32273,-2.02067 -0.41236,-4.70047 -0.6875,-7.03125 0.17534,-3.72572 -1.73871,-7.22651 -1.03125,-11.03125 -0.0927,-0.3052 -0.18765,-0.66955 -0.28125,-1 z m 16.78242,7.80511 c -0.25506,3.32843 0.21589,2.21423 -1.31173,5.28864 -0.29571,4.7117 0.50188,9.69867 0.81056,13.875 -2.79481,1.54362 -1.2368,1.79648 -1.1875,5.03125 -0.29367,2.76616 0.34312,7.2112 0.96875,9.84375 -0.0685,2.0124 1.98258,3.30514 1.25,4.65625 l 18.75777,0.49922 c -2.31223,-3.89737 9.32781,-5.37077 4.49223,-6.71797 -3.24048,-3.99243 -5.79904,-9.07009 -8.46875,-13.625 -2.95925,-4.15641 -8.45168,-7.0116 -10.78125,-12.03125 -4.07147,-2.10057 -2.99635,-6.45185 -4.53008,-6.81989 z"
         id="path3958"
         sodipodi:nodetypes="cscccscccccscccccccccccccccccccccccccccccccccccccsccccccccccccccccccscccccccccccccccccccccccccccccccccccccccccccccccccsscccccccccccccccccccccccscsccsssssccscssccsssssccscccccccssscccccccccccccccccccccccccccccccccccccccccccccccccccscccccsssccccccccccsccccscccsccccsccccccccccccccccccccccccccccc"
         inkscape:connector-curvature="0" />
      <text xml:space="preserve"
         style="color:#000000;font-style:normal;font-variant:normal;font-weight:normal;font-stretch:normal;font-size:50.6667px;line-height:0%;font-family:Sylfaen;-inkscape-font-specification:Sylfaen;text-indent:0;text-align:start;text-decoration:none;text-decoration-line:none;letter-spacing:normal;word-spacing:normal;text-transform:none;writing-mode:lr-tb;direction:ltr;text-anchor:start;display:inline;overflow:visible;visibility:visible;fill:#ffffff;fill-opacity:0.960784;fill-rule:nonzero;stroke:#000000;stroke-width:0.63;stroke-miterlimit:4;stroke-dasharray:none;stroke-opacity:1;marker:none;enable-background:accumulate"
         x="364.43732" y="693.21808" id="text4044"
         transform="scale(1.0196875,0.98069262)">
         <tspan sodipodi:role="line" id="tspan4046" x="364.43732" y="693.21808"
            style="color:#000000;font-style:normal;font-variant:normal;font-weight:bold;font-stretch:normal;font-size:50.6667px;line-height:normal;font-family:sans-serif;-inkscape-font-specification:'sans-serif Bold';text-indent:0;text-align:center;text-decoration:none;text-decoration-line:none;letter-spacing:normal;word-spacing:normal;text-transform:none;writing-mode:lr-tb;direction:ltr;text-anchor:middle;display:inline;overflow:visible;visibility:visible;fill:#ffffff;fill-opacity:0.960784;fill-rule:nonzero;stroke:#000000;stroke-width:0.63;stroke-miterlimit:4;stroke-dasharray:none;stroke-opacity:1;marker:none;enable-background:accumulate">
            Fear Knot, Doubt Knot</tspan>
         <tspan sodipodi:role="line" x="364.43732" y="756.55139"
            style="color:#000000;font-style:normal;font-variant:normal;font-weight:bold;font-stretch:normal;font-size:50.6667px;line-height:normal;font-family:sans-serif;-inkscape-font-specification:'sans-serif Bold';text-indent:0;text-align:center;text-decoration:none;text-decoration-line:none;letter-spacing:normal;word-spacing:normal;text-transform:none;writing-mode:lr-tb;direction:ltr;text-anchor:middle;display:inline;overflow:visible;visibility:visible;fill:#ffffff;fill-opacity:0.960784;fill-rule:nonzero;stroke:#000000;stroke-width:0.63;stroke-miterlimit:4;stroke-dasharray:none;stroke-opacity:1;marker:none;enable-background:accumulate"
            id="tspan3754">Trust In the Lord</tspan>
      </text>
      <text xml:space="preserve"
         style="font-size:48px;line-height:1.25;font-family:'Bodoni MT Std';-inkscape-font-specification:'Bodoni MT Std';fill:#ffffff"
         x="193.10358" y="611.67584" id="text20330">
         <tspan sodipodi:role="line" x="193.10358" y="611.67584" id="tspan20584"
            style="font-style:normal;font-variant:normal;font-weight:bold;font-stretch:normal;font-size:48px;font-family:'Bodoni MT Std';-inkscape-font-specification:'Bodoni MT Std Bold'">
            Pioneer Trek 2022</tspan>
      </text>
   </g>
</svg>